<svg width="1400" height="900" viewBox="0 0 1400 900" fill="none" xmlns="http://www.w3.org/2000/svg">
  <defs>
    <linearGradient id="hero-bg" x1="120" y1="80" x2="1260" y2="840" gradientUnits="userSpaceOnUse">
      <stop stop-color="#12364A" />
      <stop offset="1" stop-color="#081722" />
    </linearGradient>
    <linearGradient id="hero-panel" x1="287" y1="154" x2="1098" y2="743" gradientUnits="userSpaceOnUse">
      <stop stop-color="#1B465D" />
      <stop offset="1" stop-color="#0F2431" />
    </linearGradient>
    <linearGradient id="hero-accent" x1="329" y1="235" x2="1038" y2="235" gradientUnits="userSpaceOnUse">
      <stop stop-color="#0C5F7A" />
      <stop offset="1" stop-color="#36A3C1" />
    </linearGradient>
    <filter id="hero-shadow" x="179" y="104" width="1042" height="651" filterUnits="userSpaceOnUse" color-interpolation-filters="sRGB">
      <feFlood flood-opacity="0" result="BackgroundImageFix" />
      <feColorMatrix in="SourceAlpha" type="matrix" values="0 0 0 0 0 0 0 0 0 0 0 0 0 0 0 0 0 0 127 0" result="hardAlpha" />
      <feOffset dy="22" />
      <feGaussianBlur stdDeviation="38" />
      <feColorMatrix type="matrix" values="0 0 0 0 0.0117647 0 0 0 0 0.0588235 0 0 0 0 0.101961 0 0 0 0.42 0" />
      <feBlend mode="normal" in2="BackgroundImageFix" result="effect1_dropShadow_1_1" />
      <feBlend mode="normal" in="SourceGraphic" in2="effect1_dropShadow_1_1" result="shape" />
    </filter>
  </defs>
  <rect width="1400" height="900" rx="52" fill="url(#hero-bg)" />
  <circle cx="1160" cy="160" r="128" fill="#0C5F7A" fill-opacity="0.16" />
  <circle cx="220" cy="740" r="156" fill="#C94F3D" fill-opacity="0.12" />
  <g filter="url(#hero-shadow)">
    <rect x="255" y="158" width="890" height="499" rx="32" fill="url(#hero-panel)" stroke="rgba(255,255,255,0.08)" />
    <rect x="287" y="190" width="826" height="52" rx="18" fill="#0C1C27" />
    <circle cx="331" cy="216" r="8" fill="#C94F3D" />
    <circle cx="357" cy="216" r="8" fill="#E6A94D" />
    <circle cx="383" cy="216" r="8" fill="#56B88A" />
    <rect x="431" y="203" width="244" height="26" rx="13" fill="#183648" />
    <rect x="713" y="203" width="202" height="26" rx="13" fill="#143041" />
    <rect x="931" y="203" width="146" height="26" rx="13" fill="#143041" />
    <rect x="329" y="270" width="416" height="234" rx="24" fill="#102534" />
    <rect x="775" y="270" width="263" height="136" rx="24" fill="#102534" />
    <rect x="775" y="430" width="263" height="74" rx="24" fill="#102534" />
    <rect x="329" y="530" width="709" height="86" rx="24" fill="#102534" />
    <path d="M364 427C409.004 389.084 448.296 404.921 490.5 372C528.533 342.332 554.853 297.472 607 318.5C662.22 340.768 667.385 421.772 724 420" stroke="url(#hero-accent)" stroke-width="16" stroke-linecap="round" />
    <path d="M369 448H704" stroke="#2A4C60" stroke-width="8" stroke-linecap="round" />
    <path d="M369 469H641" stroke="#2A4C60" stroke-width="8" stroke-linecap="round" />
    <circle cx="489" cy="373" r="15" fill="#36A3C1" />
    <circle cx="607" cy="319" r="15" fill="#36A3C1" />
    <circle cx="724" cy="420" r="15" fill="#36A3C1" />
    <rect x="807" y="302" width="96" height="72" rx="20" fill="#143041" />
    <rect x="919" y="302" width="87" height="72" rx="20" fill="#143041" />
    <rect x="807" y="451" width="199" height="16" rx="8" fill="#24506A" />
    <rect x="807" y="478" width="152" height="12" rx="6" fill="#1A3D50" />
    <rect x="361" y="562" width="162" height="22" rx="11" fill="#24506A" />
    <rect x="545" y="562" width="186" height="22" rx="11" fill="#183D50" />
    <rect x="753" y="562" width="253" height="22" rx="11" fill="#183D50" />
    <rect x="361" y="596" width="645" height="10" rx="5" fill="#1A3D50" />
  </g>
  <rect x="159" y="208" width="176" height="120" rx="28" fill="#F7FAFC" fill-opacity="0.96" />
  <rect x="186" y="238" width="101" height="18" rx="9" fill="#D6E6EE" />
  <rect x="186" y="271" width="118" height="26" rx="13" fill="#0C5F7A" />
  <rect x="1003" y="585" width="226" height="132" rx="28" fill="#F7FAFC" fill-opacity="0.96" />
  <rect x="1034" y="619" width="112" height="18" rx="9" fill="#D6E6EE" />
  <rect x="1034" y="650" width="159" height="28" rx="14" fill="#0C5F7A" />
</svg>
